<svg width="69" height="31" viewBox="0 0 69 31" fill="none" xmlns="http://www.w3.org/2000/svg">
<path d="M3.552 27.304C3.424 27.304 3.296 27.24 3.168 27.112L2.832 27.016L2.736 27.064L2.832 26.92C2.832 26.824 2.768 26.776 2.64 26.776C2.512 26.776 2.416 26.776 2.352 26.776C2.384 26.552 2.256 26.44 1.968 26.44C1.712 26.44 1.6 26.376 1.632 26.248L1.44 26.2C1.408 26.04 1.312 25.896 1.152 25.768C1.216 25.704 1.232 25.624 1.2 25.528C1.168 25.464 1.152 25.416 1.152 25.384C1.088 25.384 1.024 25.352 0.96 25.288L0.912 25.144C0.848 25.144 0.752 25.112 0.624 25.048C0.624 24.984 0.608 24.92 0.576 24.856C0.576 24.792 0.576 24.744 0.576 24.712H0.528C0.496 24.584 0.448 24.52 0.384 24.52C0.352 24.52 0.304 24.504 0.24 24.472C0.176 24.216 0.16 24.024 0.192 23.896C0.224 23.768 0.224 23.592 0.192 23.368L0.24 23.272C0.4 22.984 0.48 22.84 0.48 22.84C0.576 22.84 0.656 22.936 0.72 23.128C0.784 23.32 0.848 23.464 0.912 23.56C0.944 23.592 0.992 23.624 1.056 23.656C1.12 23.688 1.136 23.72 1.104 23.752L1.056 23.944L1.152 23.896C1.152 24.024 1.184 24.12 1.248 24.184C1.28 24.312 1.344 24.52 1.44 24.808C1.536 25.064 1.696 25.176 1.92 25.144C1.92 25.24 1.968 25.336 2.064 25.432C2.192 25.528 2.304 25.56 2.4 25.528C2.432 25.592 2.512 25.64 2.64 25.672C2.768 25.704 2.864 25.736 2.928 25.768C3.088 25.736 3.248 25.72 3.408 25.72C3.6 25.752 3.776 25.752 3.936 25.72L4.992 25.528C5.024 25.496 5.184 25.416 5.472 25.288C5.76 25.16 5.968 25.032 6.096 24.904H6.144C6.304 24.904 6.464 24.872 6.624 24.808C6.816 24.712 6.976 24.632 7.104 24.568C7.2 24.536 7.28 24.488 7.344 24.424C7.408 24.328 7.488 24.264 7.584 24.232L8.016 23.992C8.112 23.928 8.208 23.912 8.304 23.944C8.432 23.944 8.544 23.88 8.64 23.752C8.736 23.688 8.816 23.608 8.88 23.512C8.976 23.416 9.056 23.336 9.12 23.272H9.264C9.36 23.112 9.424 22.984 9.456 22.888L10.368 22.552C10.432 22.488 10.48 22.424 10.512 22.36C10.576 22.264 10.624 22.184 10.656 22.12C10.72 22.056 10.8 22.008 10.896 21.976C10.992 21.912 11.04 21.816 11.04 21.688C11.2 21.624 11.344 21.544 11.472 21.448C11.632 21.352 11.744 21.24 11.808 21.112C11.872 21.08 12.064 20.936 12.384 20.68C12.704 20.392 13.072 20.072 13.488 19.72C13.904 19.368 14.272 19.064 14.592 18.808C14.912 18.52 15.088 18.36 15.12 18.328L15.312 18.136L13.824 17.56C12.992 17.24 12.128 16.984 11.232 16.792C10.368 16.568 9.424 16.408 8.4 16.312C8.176 16.28 8.016 16.216 7.92 16.12C7.856 15.992 7.824 15.768 7.824 15.448C7.824 15.032 7.984 14.76 8.304 14.632C8.624 14.472 8.992 14.392 9.408 14.392C9.856 14.392 10.208 14.424 10.464 14.488C10.752 14.552 11.152 14.6 11.664 14.632C11.728 14.632 11.968 14.68 12.384 14.776C12.8 14.84 13.248 14.904 13.728 14.968C13.792 14.968 14.048 14.984 14.496 15.016C14.976 15.048 15.392 15.064 15.744 15.064C16.16 15.032 16.592 15.016 17.04 15.016C17.488 15.016 17.936 15.016 18.384 15.016L19.152 14.152C19.44 13.832 19.712 13.512 19.968 13.192C20.256 12.872 20.56 12.568 20.88 12.28C20.976 12.184 21.072 12.104 21.168 12.04C21.296 11.976 21.408 11.88 21.504 11.752L21.936 11.224C22 11.16 22.064 11.112 22.128 11.08C22.224 11.048 22.288 11.016 22.32 10.984C22.448 10.856 22.56 10.712 22.656 10.552C22.752 10.392 22.832 10.248 22.896 10.12C22.96 10.12 23.072 10.024 23.232 9.832C23.392 9.64 23.488 9.512 23.52 9.448C23.68 9.384 23.792 9.288 23.856 9.16C23.952 9 24.032 8.84 24.096 8.68C24.192 8.616 24.288 8.552 24.384 8.488C24.512 8.392 24.608 8.296 24.672 8.2C24.736 8.104 24.784 7.992 24.816 7.864C24.88 7.736 24.976 7.656 25.104 7.624C25.2 7.368 25.408 7.08 25.728 6.76C26.08 6.408 26.272 6.168 26.304 6.04C26.464 6.008 26.608 5.912 26.736 5.752C26.864 5.56 26.992 5.432 27.12 5.368C27.248 5.016 27.488 4.712 27.84 4.456C28.192 4.168 28.384 3.864 28.416 3.544C28.448 3.48 28.496 3.432 28.56 3.4C28.624 3.368 28.672 3.336 28.704 3.304C28.8 3.24 28.864 3.16 28.896 3.064C28.96 2.936 29.04 2.824 29.136 2.728C29.168 2.664 29.2 2.616 29.232 2.584C29.296 2.552 29.344 2.52 29.376 2.488C29.344 2.488 29.232 2.456 29.04 2.392C28.976 2.392 28.848 2.392 28.656 2.392C28.464 2.36 28.256 2.344 28.032 2.344C27.296 2.344 26.8 2.376 26.544 2.44C25.936 2.472 25.408 2.52 24.96 2.584C24.544 2.648 24.048 2.76 23.472 2.92C23.472 2.92 23.456 2.904 23.424 2.872C23.392 2.84 23.36 2.824 23.328 2.824L23.28 2.776C23.184 2.744 23.168 2.76 23.232 2.824C23.296 2.888 23.28 2.936 23.184 2.968C22.992 3 22.768 3.048 22.512 3.112C22.288 3.176 22.08 3.208 21.888 3.208C21.792 3.24 21.696 3.256 21.6 3.256C21.504 3.224 21.408 3.208 21.312 3.208C20.992 3.24 20.672 3.352 20.352 3.544C20.064 3.704 19.76 3.816 19.44 3.88L18.864 4.024C18.64 4.088 18.464 4.152 18.336 4.216C18.24 4.248 18.064 4.296 17.808 4.36L17.376 4.504C17.28 4.536 17.168 4.568 17.04 4.6C16.944 4.632 16.832 4.664 16.704 4.696C16.448 4.792 16.176 4.904 15.888 5.032C15.632 5.16 15.376 5.256 15.12 5.32L14.256 5.56C14.16 5.592 14.016 5.608 13.824 5.608C13.568 5.608 13.392 5.576 13.296 5.512C13.168 5.448 13.008 5.272 12.816 4.984C12.656 4.664 12.592 4.44 12.624 4.312C12.816 4.024 13.2 3.8 13.776 3.64C14.384 3.448 14.768 3.336 14.928 3.304C14.96 3.272 15.104 3.224 15.36 3.16C15.648 3.064 15.92 2.984 16.176 2.92C16.432 2.856 16.56 2.856 16.56 2.92C16.592 2.952 16.416 3.08 16.032 3.304C15.648 3.496 15.44 3.608 15.408 3.64C15.408 3.672 15.376 3.72 15.312 3.784C15.28 3.848 15.28 3.864 15.312 3.832L16.416 3.544C16.48 3.512 16.608 3.496 16.8 3.496H17.136C17.36 3.496 17.504 3.464 17.568 3.4C17.632 3.272 17.696 3.208 17.76 3.208C17.92 3.144 18.16 3.096 18.48 3.064C18.832 3 19.056 2.936 19.152 2.872C19.312 2.84 19.488 2.824 19.68 2.824C19.872 2.792 20.048 2.744 20.208 2.68C20.304 2.648 20.624 2.584 21.168 2.488C21.744 2.392 22.32 2.296 22.896 2.2C23.472 2.104 23.792 2.056 23.856 2.056H23.904C24.064 2.056 24.224 2.04 24.384 2.008C24.544 1.944 24.64 2.008 24.672 2.2C24.704 2.2 24.72 2.216 24.72 2.248C24.72 2.248 24.736 2.248 24.768 2.248C24.96 2.248 25.136 2.168 25.296 2.008C25.36 1.976 25.52 1.944 25.776 1.912C26.032 1.88 26.192 1.864 26.256 1.864C26.512 1.832 26.72 1.816 26.88 1.816C27.04 1.816 27.184 1.816 27.312 1.816C27.568 1.816 27.792 1.832 27.984 1.864C28.208 1.864 28.48 1.88 28.8 1.912C28.928 1.944 29.088 1.96 29.28 1.96C29.504 1.96 29.696 1.976 29.856 2.008L30.048 1.768C30.272 1.64 30.464 1.576 30.624 1.576C30.752 1.576 30.816 1.64 30.816 1.768C30.816 2.12 30.64 2.44 30.288 2.728C30.256 2.76 30.176 2.808 30.048 2.872C29.92 2.904 29.84 2.952 29.808 3.016C29.648 3.432 29.328 3.816 28.848 4.168C28.4 4.52 28.16 4.776 28.128 4.936C28 5 27.856 5.096 27.696 5.224C27.536 5.352 27.44 5.48 27.408 5.608C27.248 5.8 27.12 6.008 27.024 6.232C26.928 6.424 26.784 6.616 26.592 6.808C26.496 6.904 26.336 7.096 26.112 7.384C25.888 7.672 25.664 7.96 25.44 8.248C25.216 8.504 25.056 8.632 24.96 8.632C24.864 8.728 24.816 8.792 24.816 8.824C24.848 8.856 24.784 8.92 24.624 9.016C24.464 9.176 24.336 9.352 24.24 9.544C24.048 9.576 23.888 9.704 23.76 9.928C23.664 10.12 23.568 10.296 23.472 10.456C23.344 10.616 23.2 10.76 23.04 10.888C22.912 11.016 22.784 11.16 22.656 11.32C22.528 11.352 22.384 11.496 22.224 11.752C22.096 11.976 22 12.136 21.936 12.232C21.744 12.456 21.568 12.632 21.408 12.76C21.28 12.888 21.216 13.112 21.216 13.432C21.152 13.496 21.056 13.592 20.928 13.72C20.8 13.848 20.72 13.96 20.688 14.056C20.624 14.184 20.528 14.296 20.4 14.392C20.304 14.488 20.224 14.6 20.16 14.728L20.016 14.824L19.968 14.92C20.352 14.92 20.736 14.92 21.12 14.92C21.504 14.92 21.872 14.904 22.224 14.872L23.808 14.776C23.872 14.776 23.968 14.824 24.096 14.92C24.256 14.984 24.352 15 24.384 14.968C24.48 14.968 24.512 14.92 24.48 14.824C24.448 14.696 24.496 14.632 24.624 14.632C24.912 14.6 25.264 14.568 25.68 14.536C26.128 14.472 26.56 14.392 26.976 14.296L27.408 12.952L27.84 11.56C27.904 11.336 28 11.192 28.128 11.128C28.256 11.064 28.336 10.968 28.368 10.84C28.4 10.776 28.368 10.728 28.272 10.696C28.176 10.632 28.176 10.536 28.272 10.408C28.56 9.512 28.928 8.616 29.376 7.72C29.824 6.824 30.208 6.008 30.528 5.272V5.224C30.624 5.096 30.704 5 30.768 4.936C30.864 4.872 30.928 4.792 30.96 4.696C30.928 4.664 30.928 4.632 30.96 4.6C30.992 4.568 30.976 4.536 30.912 4.504C31.136 4.28 31.264 3.992 31.296 3.64L31.776 2.632L32.496 1.48C32.528 1.384 32.608 1.272 32.736 1.144C32.992 0.855999 33.216 0.711998 33.408 0.711998C33.696 0.711998 33.712 0.887998 33.456 1.24L33.36 1.48L33.024 1.912L32.832 2.44C32.512 3.016 32.208 3.64 31.92 4.312C31.632 4.984 31.312 5.688 30.96 6.424V6.616C30.96 6.776 30.912 6.888 30.816 6.952C30.752 7.016 30.624 7.08 30.432 7.144C30.528 7.336 30.544 7.544 30.48 7.768L30.144 8.728C30.016 9.048 29.84 9.432 29.616 9.88C29.392 10.328 29.264 10.68 29.232 10.936C28.912 11.96 28.672 12.936 28.512 13.864C28.608 13.832 28.704 13.8 28.8 13.768C28.896 13.736 28.976 13.704 29.04 13.672C29.2 13.608 29.312 13.576 29.376 13.576C29.472 13.576 29.6 13.56 29.76 13.528C29.952 13.464 30.144 13.384 30.336 13.288C30.432 13.224 30.56 13.192 30.72 13.192C30.88 13.192 30.96 13.24 30.96 13.336C30.96 13.464 30.816 13.608 30.528 13.768L29.52 14.344C29.264 14.408 29.056 14.44 28.896 14.44C28.832 14.44 28.672 14.472 28.416 14.536L28.224 15.64L28.272 16.36C28.24 16.456 28.096 16.504 27.84 16.504C27.616 16.504 27.584 16.648 27.744 16.936C27.872 17.096 27.952 17.208 27.984 17.272C28.016 17.304 28 17.448 27.936 17.704C27.808 18.088 27.696 18.6 27.6 19.24C27.536 19.88 27.488 20.408 27.456 20.824C27.456 20.856 27.424 20.936 27.36 21.064C27.328 21.192 27.296 21.288 27.264 21.352C27.264 21.384 27.28 21.4 27.312 21.4C27.376 21.4 27.408 21.432 27.408 21.496C27.472 22.168 27.472 22.792 27.408 23.368L27.312 24.472C27.312 24.504 27.28 24.568 27.216 24.664C27.152 24.76 27.136 24.84 27.168 24.904C27.072 25.256 26.896 25.496 26.64 25.624C26.384 25.784 26.128 25.864 25.872 25.864C25.392 25.864 25.072 25.784 24.912 25.624L24.672 25.432V24.376C24.48 24.216 24.288 24.056 24.096 23.896C23.904 23.736 23.712 23.592 23.52 23.464C23.168 23.208 22.816 22.984 22.464 22.792C22.144 22.568 21.808 22.328 21.456 22.072C21.072 21.784 20.688 21.48 20.304 21.16C19.952 20.84 19.568 20.536 19.152 20.248C18.704 19.928 18.24 19.64 17.76 19.384C17.28 19.096 16.8 18.84 16.32 18.616C16.192 18.744 15.952 18.984 15.6 19.336C15.248 19.656 14.912 19.976 14.592 20.296C14.272 20.584 14.08 20.744 14.016 20.776C13.984 20.84 13.936 20.904 13.872 20.968C13.84 21.032 13.792 21.096 13.728 21.16C13.664 21.192 13.568 21.24 13.44 21.304C13.344 21.368 13.296 21.432 13.296 21.496C13.232 21.56 13.136 21.624 13.008 21.688C12.912 21.72 12.848 21.8 12.816 21.928L12.864 21.976C12.736 22.008 12.672 22.04 12.672 22.072C12.704 22.104 12.72 22.168 12.72 22.264C12.688 22.296 12.576 22.36 12.384 22.456C12.224 22.552 12.112 22.616 12.048 22.648C11.76 22.808 11.552 22.936 11.424 23.032C11.328 23.128 11.2 23.32 11.04 23.608C10.944 23.672 10.736 23.8 10.416 23.992C10.096 24.184 9.936 24.312 9.936 24.376C9.808 24.408 9.728 24.472 9.696 24.568C9.664 24.664 9.616 24.744 9.552 24.808C9.52 24.872 9.456 24.92 9.36 24.952C9.264 24.984 9.2 25.048 9.168 25.144L9.072 25.192H9.024C8.928 25.192 8.832 25.24 8.736 25.336C8.672 25.432 8.608 25.512 8.544 25.576C8.192 25.608 7.92 25.704 7.728 25.864C7.568 26.056 7.344 26.216 7.056 26.344C6.672 26.504 6.272 26.664 5.856 26.824C5.44 26.984 5.008 27.096 4.56 27.16C4.432 27.224 4.336 27.272 4.272 27.304C4.24 27.368 4.144 27.368 3.984 27.304C4.048 27.208 4.032 27.16 3.936 27.16C3.808 27.256 3.68 27.304 3.552 27.304ZM24.768 23.752V23.608C24.768 23.512 24.816 23.416 24.912 23.32C24.88 23.256 24.848 23.224 24.816 23.224C24.816 23.192 24.816 23.16 24.816 23.128L25.824 18.376C25.952 17.8 26.096 17.224 26.256 16.648C26.448 16.04 26.64 15.432 26.832 14.824C26.768 14.856 26.704 14.872 26.64 14.872C26.48 14.904 26.352 14.92 26.256 14.92C26.16 14.92 26 14.952 25.776 15.016C25.456 15.08 25.088 15.176 24.672 15.304C24.288 15.432 23.872 15.512 23.424 15.544C23.104 15.576 22.848 15.576 22.656 15.544C22.496 15.512 22.256 15.512 21.936 15.544C21.776 15.576 21.52 15.624 21.168 15.688C20.816 15.72 20.544 15.736 20.352 15.736L18.864 15.928C18.864 15.928 18.848 15.944 18.816 15.976C18.816 16.008 18.816 16.04 18.816 16.072C18.752 16.136 18.624 16.248 18.432 16.408C18.272 16.536 18.176 16.664 18.144 16.792L18 16.84C17.968 16.872 17.904 16.952 17.808 17.08C17.744 17.176 17.696 17.256 17.664 17.32C17.536 17.352 17.424 17.432 17.328 17.56C17.232 17.688 17.152 17.816 17.088 17.944C16.96 17.944 16.864 17.976 16.8 18.04C17.568 18.456 18.256 18.872 18.864 19.288C18.992 19.384 19.088 19.48 19.152 19.576C19.216 19.672 19.312 19.768 19.44 19.864C19.728 20.056 20 20.216 20.256 20.344C20.544 20.44 20.8 20.584 21.024 20.776L23.952 22.984C24.048 23.048 24.176 23.16 24.336 23.32C24.496 23.448 24.64 23.592 24.768 23.752ZM15.888 17.56C16.144 17.304 16.4 17.048 16.656 16.792C16.912 16.536 17.168 16.28 17.424 16.024L13.536 16.264C13.088 16.296 12.768 16.312 12.576 16.312C12.416 16.312 12.176 16.344 11.856 16.408C12.272 16.504 12.672 16.616 13.056 16.744C13.44 16.84 13.824 16.952 14.208 17.08C14.368 17.144 14.512 17.208 14.64 17.272C14.768 17.336 14.896 17.4 15.024 17.464C15.088 17.496 15.152 17.48 15.216 17.416C15.28 17.32 15.328 17.288 15.36 17.32L15.888 17.56ZM49.7479 16.456C49.5239 16.456 49.3479 16.424 49.2199 16.36C48.9319 16.232 48.7879 16.168 48.7879 16.168C48.7879 16.136 48.9319 16.024 49.2199 15.832C49.4439 15.704 49.6999 15.656 49.9879 15.688C50.3079 15.72 50.5319 15.72 50.6599 15.688C51.4279 15.528 52.3559 15.304 53.4439 15.016C54.5319 14.728 55.7959 14.152 57.2359 13.288L59.1079 12.184C59.2679 12.088 59.3799 12.104 59.4439 12.232C59.3799 12.264 59.3479 12.344 59.3479 12.472C59.5719 12.472 59.6999 12.392 59.7319 12.232C59.7959 12.04 59.8599 11.864 59.9239 11.704H59.9719L61.0279 11.032C61.1879 11 61.3319 11.016 61.4599 11.08C61.6199 11.144 61.7639 11.128 61.8919 11.032C61.8279 10.904 61.7639 10.824 61.6999 10.792C61.6359 10.728 61.6679 10.648 61.7959 10.552L61.9879 10.408C62.2439 10.248 62.4679 10.136 62.6599 10.072C62.8839 9.976 63.0439 9.8 63.1399 9.544C63.7799 8.968 64.3239 8.392 64.7719 7.816C65.2199 7.24 65.4439 6.696 65.4439 6.184C65.4439 5.64 65.1399 5.176 64.5319 4.792C63.9559 4.376 62.9159 4.072 61.4119 3.88L61.0279 3.832C60.8039 3.8 60.5959 3.768 60.4039 3.736C60.2119 3.704 60.0199 3.64 59.8279 3.544C59.8599 3.672 59.7959 3.736 59.6359 3.736C59.1879 3.704 58.7399 3.688 58.2919 3.688C57.8439 3.656 57.4119 3.64 56.9959 3.64C56.2919 3.64 55.6359 3.656 55.0279 3.688C54.4519 3.72 54.0359 3.752 53.7799 3.784L52.1959 3.976C52.0039 3.912 51.8119 3.944 51.6199 4.072H51.5719C51.3479 4.072 51.1239 4.104 50.8999 4.168C50.6759 4.2 50.4359 4.248 50.1799 4.312C50.0519 4.344 49.9079 4.376 49.7479 4.408C49.5879 4.408 49.4279 4.44 49.2679 4.504L48.3079 4.696C48.0839 4.856 47.7959 4.936 47.4439 4.936H47.3959L46.4839 5.176H46.4359C46.3079 5.176 46.1959 5.112 46.0999 4.984C46.0039 4.824 45.9399 4.68 45.9079 4.552C45.8759 4.744 45.8279 4.952 45.7639 5.176C45.6999 5.4 45.5879 5.512 45.4279 5.512L44.0839 5.944C43.9559 5.976 43.8119 5.992 43.6519 5.992C43.4919 5.992 43.3319 5.992 43.1719 5.992C43.0119 5.992 42.8839 6.008 42.7879 6.04C42.6919 6.072 42.6279 6.152 42.5959 6.28C42.5959 6.376 42.5479 6.456 42.4519 6.52C42.3239 6.648 42.1639 6.744 41.9719 6.808C41.7799 6.84 41.6039 6.888 41.4439 6.952H41.3959C41.3319 6.952 41.2359 6.92 41.1079 6.856C41.0119 6.792 40.9319 6.776 40.8679 6.808C40.8359 6.84 40.8039 6.92 40.7719 7.048C40.7399 7.176 40.6919 7.256 40.6279 7.288V7.336C40.4359 7.4 40.2279 7.48 40.0039 7.576C39.7799 7.672 39.5719 7.768 39.3799 7.864C39.1879 7.96 38.9639 8.072 38.7079 8.2C38.4839 8.296 38.2919 8.36 38.1319 8.392C38.0679 8.392 38.0359 8.328 38.0359 8.2C38.0679 8.072 38.0519 8.04 37.9879 8.104C37.7959 8.2 37.6039 8.376 37.4119 8.632C37.2199 8.888 37.0439 9.064 36.8839 9.16C36.7239 9.288 36.5479 9.352 36.3559 9.352C36.1959 9.352 36.0359 9.416 35.8759 9.544C35.7799 9.64 35.6839 9.8 35.5879 10.024C35.5239 10.216 35.4439 10.36 35.3479 10.456C35.0919 10.712 34.8359 11.016 34.5799 11.368C34.5479 11.432 34.4999 11.496 34.4359 11.56C34.3719 11.624 34.3399 11.704 34.3399 11.8H34.2919C34.0999 12.184 34.0039 12.552 34.0039 12.904C34.0039 13.608 34.2599 14.12 34.7719 14.44C35.3159 14.76 35.9239 15 36.5959 15.16C36.7239 15.192 36.8359 15.24 36.9319 15.304C37.0599 15.368 37.1879 15.384 37.3159 15.352C37.4439 15.288 37.5559 15.256 37.6519 15.256C37.8119 15.256 37.9399 15.32 38.0359 15.448L38.7559 15.592C39.1399 15.688 39.3319 15.784 39.3319 15.88C39.3319 15.944 39.2359 16.008 39.0439 16.072C38.8839 16.104 38.7239 16.12 38.5639 16.12C37.9879 16.12 37.2839 16.008 36.4519 15.784C35.6199 15.528 34.8679 15.16 34.1959 14.68C33.5239 14.2 33.1399 13.576 33.0439 12.808C33.0439 12.776 32.9959 12.696 32.8999 12.568C32.8359 12.44 32.7879 12.328 32.7559 12.232C32.6599 11.944 32.6119 11.656 32.6119 11.368C32.6119 10.824 32.7239 10.312 32.9479 9.832C33.2039 9.352 33.5399 8.904 33.9559 8.488C34.1159 8.328 34.2599 8.216 34.3879 8.152C34.5479 8.088 34.7239 7.992 34.9159 7.864C35.1079 7.736 35.2039 7.624 35.2039 7.528C35.2039 7.432 35.2999 7.32 35.4919 7.192C35.7479 7.032 36.0999 6.84 36.5479 6.616C37.0279 6.392 37.3959 6.216 37.6519 6.088C37.8439 6.088 38.0199 6.008 38.1799 5.848C38.8199 5.56 39.4919 5.304 40.1959 5.08C40.8999 4.824 41.6039 4.584 42.3079 4.36C42.4359 4.328 42.5479 4.296 42.6439 4.264C42.7399 4.232 42.8359 4.216 42.9319 4.216C43.0599 4.216 43.1879 4.264 43.3159 4.36C43.3159 4.296 43.2999 4.248 43.2679 4.216C43.2679 4.152 43.2999 4.104 43.3639 4.072C44.1639 3.816 44.9479 3.576 45.7159 3.352C46.5159 3.096 47.2999 2.968 48.0679 2.968H48.1159C48.1799 2.968 48.2439 2.952 48.3079 2.92C48.4039 2.888 48.4839 2.872 48.5479 2.872H48.5959L48.9319 2.824C49.1239 2.92 49.3159 2.888 49.5079 2.728C50.3719 2.568 51.1719 2.456 51.9079 2.392C52.6439 2.296 53.2679 2.248 53.7799 2.248H53.9719C54.1319 2.248 54.2599 2.232 54.3559 2.2H54.8359C54.9319 2.168 55.0279 2.168 55.1239 2.2C55.2519 2.2 55.3479 2.2 55.4119 2.2H55.4599C55.8439 2.2 56.2439 2.216 56.6599 2.248C57.1079 2.248 57.5559 2.248 58.0039 2.248H58.0519C58.1799 2.248 58.2759 2.296 58.3399 2.392C58.4359 2.456 58.5479 2.424 58.6759 2.296C59.5399 2.328 60.4039 2.424 61.2679 2.584C61.9079 2.68 62.6439 2.872 63.4759 3.16C64.3399 3.448 65.0919 3.896 65.7319 4.504C66.3719 5.08 66.6919 5.896 66.6919 6.952C66.6919 7.464 66.6279 7.928 66.4999 8.344C66.4039 8.728 66.2119 9.08 65.9239 9.4C65.6679 9.72 65.3639 10.04 65.0119 10.36C64.9159 10.456 64.8199 10.568 64.7239 10.696C64.6279 10.824 64.5159 10.936 64.3879 11.032C64.3559 11.064 64.2919 11.096 64.1959 11.128C64.1319 11.128 64.0679 11.144 64.0039 11.176C63.9399 11.24 63.8759 11.288 63.8119 11.32C63.7479 11.352 63.6679 11.4 63.5719 11.464C62.5159 12.168 61.6039 12.696 60.8359 13.048C60.0999 13.368 59.1239 13.736 57.9079 14.152C57.5239 14.28 57.2519 14.36 57.0919 14.392C56.9319 14.392 56.8039 14.424 56.7079 14.488C55.9079 14.712 54.9959 15.032 53.9719 15.448C52.9479 15.864 52.0679 16.136 51.3319 16.264C51.2679 16.296 51.0599 16.344 50.7079 16.408C50.3879 16.44 50.0679 16.456 49.7479 16.456ZM64.0999 30.808C64.0679 30.808 63.9559 30.808 63.7639 30.808C63.5719 30.808 63.4599 30.792 63.4279 30.76C63.2999 30.696 63.2519 30.6 63.2839 30.472C63.3159 30.344 63.2679 30.28 63.1399 30.28C63.0119 30.28 62.9319 30.328 62.8999 30.424C62.8679 30.552 62.7719 30.616 62.6119 30.616H62.5639C62.4039 30.616 62.2599 30.536 62.1319 30.376C62.0359 30.216 61.9239 30.168 61.7959 30.232C61.6039 30.328 61.4439 30.376 61.3159 30.376C61.0919 30.376 60.9159 30.296 60.7879 30.136C60.6599 29.976 60.4839 29.832 60.2599 29.704C60.2279 29.704 60.1639 29.72 60.0679 29.752C60.0039 29.784 59.9399 29.784 59.8759 29.752C59.8439 29.72 59.5879 29.576 59.1079 29.32C58.6279 29.096 58.1479 28.856 57.6679 28.6C57.1879 28.344 56.8999 28.184 56.8039 28.12C56.7079 27.896 56.6119 27.768 56.5159 27.736C56.4519 27.704 56.3079 27.688 56.0839 27.688C55.9559 27.592 55.7799 27.48 55.5559 27.352C55.3639 27.256 55.2359 27.128 55.1719 26.968C54.7559 26.808 54.3879 26.616 54.0679 26.392C53.7479 26.168 53.4119 25.912 53.0599 25.624C52.9959 25.56 52.9159 25.512 52.8199 25.48C52.7239 25.448 52.6439 25.4 52.5799 25.336L51.2839 24.376C51.2199 24.184 50.9799 23.976 50.5639 23.752C50.1479 23.496 49.8599 23.256 49.6999 23.032C49.6679 23 49.6519 22.968 49.6519 22.936C49.6519 22.776 49.5719 22.696 49.4119 22.696C49.3159 22.696 49.2199 22.696 49.1239 22.696C49.0279 22.696 48.9799 22.632 48.9799 22.504C48.8839 22.28 48.6439 22.024 48.2599 21.736C47.8759 21.416 47.5239 21.096 47.2039 20.776C46.8839 20.456 46.7719 20.184 46.8679 19.96C46.7399 19.928 46.6119 19.912 46.4839 19.912C46.3559 19.912 46.2599 19.864 46.1959 19.768C46.0679 19.512 45.9079 19.304 45.7159 19.144C45.6199 19.08 45.5239 18.984 45.4279 18.856L45.1879 19.336C45.0599 19.528 44.9319 19.752 44.8039 20.008C44.6759 20.264 44.5319 20.536 44.3719 20.824L43.9399 21.688C43.9079 21.784 43.8599 21.832 43.7959 21.832C43.7639 21.8 43.7159 21.784 43.6519 21.784C43.7159 21.912 43.7479 22.024 43.7479 22.12C43.7479 22.376 43.6039 22.648 43.3159 22.936C42.8999 23.896 42.5159 24.808 42.1639 25.672C41.8119 26.536 41.5399 27.336 41.3479 28.072C41.2839 28.328 41.1879 28.456 41.0599 28.456C40.8359 28.456 40.7239 28.216 40.7239 27.736C40.7239 27.288 40.8999 26.584 41.2519 25.624L41.2039 25.672C41.1719 25.672 41.0599 25.704 40.8679 25.768C40.6759 25.832 40.5479 25.848 40.4839 25.816C40.0679 25.816 39.8599 25.672 39.8599 25.384C39.8599 24.616 40.0199 23.816 40.3399 22.984L41.5879 19.72C41.6519 19.624 41.6839 19.528 41.6839 19.432C41.7159 19.336 41.7479 19.24 41.7799 19.144L41.8279 19.096V19.048L42.0199 18.04C42.0839 17.752 42.1159 17.496 42.1159 17.272C42.1479 17.048 42.1639 16.776 42.1639 16.456C42.1639 16.36 42.2119 16.296 42.3079 16.264C42.3079 16.04 42.3239 15.832 42.3559 15.64C42.3879 15.416 42.4039 15.192 42.4039 14.968V14.728C42.3719 14.696 42.3559 14.632 42.3559 14.536C42.3559 14.472 42.3399 14.408 42.3079 14.344C42.3079 14.28 42.3079 14.216 42.3079 14.152C42.3079 14.12 42.3079 14.104 42.3079 14.104C42.3399 14.072 42.3559 14.04 42.3559 14.008C42.4199 13.624 42.5319 13.272 42.6919 12.952C42.8839 12.632 43.0919 12.552 43.3159 12.712C43.3799 12.744 43.4919 12.936 43.6519 13.288C43.8439 13.64 44.0039 13.896 44.1319 14.056C44.2599 14.376 44.4199 14.68 44.6119 14.968C44.8039 15.224 44.9639 15.512 45.0919 15.832C45.1879 15.992 45.2359 16.12 45.2359 16.216C45.2359 16.28 45.3479 16.344 45.5719 16.408C46.4999 14.744 47.4279 13.16 48.3559 11.656C49.3159 10.12 50.2119 8.936 51.0439 8.104L51.1879 8.008L51.3319 7.768C51.3319 7.768 51.3639 7.752 51.4279 7.72C51.4919 7.688 51.5399 7.704 51.5719 7.768C51.5719 7.8 51.5399 7.864 51.4759 7.96C51.4439 8.056 51.4279 8.12 51.4279 8.152C51.5239 8.312 51.6359 8.328 51.7639 8.2C51.7959 8.136 51.7959 7.992 51.7639 7.768C51.7319 7.544 51.7319 7.432 51.7639 7.432C51.8279 7.4 51.8599 7.4 51.8599 7.432C51.8919 7.464 51.9239 7.48 51.9559 7.48C52.0199 7.48 52.0519 7.432 52.0519 7.336C52.0519 7.24 52.0679 7.176 52.0999 7.144C52.4519 7.016 52.7719 6.952 53.0599 6.952C53.2199 6.952 53.4439 7.032 53.7319 7.192C54.0519 7.352 54.2119 7.576 54.2119 7.864C54.2119 8.024 54.1319 8.216 53.9719 8.44C53.9399 8.472 53.9079 8.536 53.8759 8.632C53.8439 8.696 53.7959 8.76 53.7319 8.824C53.6999 8.856 53.6679 8.872 53.6359 8.872C53.6359 8.84 53.6039 8.84 53.5399 8.872C53.5079 8.904 53.4599 8.92 53.3959 8.92C53.3639 8.888 53.3159 8.872 53.2519 8.872C53.1879 8.872 53.1719 8.92 53.2039 9.016C53.2679 9.112 53.2839 9.176 53.2519 9.208C53.2199 9.24 53.1879 9.24 53.1559 9.208C53.1239 9.176 53.0759 9.192 53.0119 9.256C52.9799 9.288 52.9959 9.32 53.0599 9.352C53.1559 9.352 53.1719 9.384 53.1079 9.448C52.9159 9.64 52.6759 9.848 52.3879 10.072C52.1319 10.264 51.8759 10.456 51.6199 10.648C51.5879 10.68 51.5559 10.68 51.5239 10.648C51.4919 10.584 51.4599 10.568 51.4279 10.6L51.0919 11.08C50.7719 11.4 50.4519 11.736 50.1319 12.088C49.8119 12.44 49.4759 12.84 49.1239 13.288C49.0279 13.48 48.9159 13.656 48.7879 13.816C48.6599 13.976 48.4839 14.04 48.2599 14.008C48.2599 14.04 48.2919 14.088 48.3559 14.152C48.4199 14.184 48.4199 14.248 48.3559 14.344C47.6519 15.304 46.9959 16.296 46.3879 17.32L47.3959 18.568C47.4919 18.696 47.5399 18.84 47.5399 19C47.5399 19.128 47.5719 19.208 47.6359 19.24C47.6999 19.24 47.7479 19.224 47.7799 19.192C47.8439 19.16 47.8919 19.144 47.9239 19.144C48.0199 19.144 48.0999 19.224 48.1639 19.384C48.2599 19.512 48.3559 19.624 48.4519 19.72C48.5799 19.848 48.7079 19.976 48.8359 20.104C48.9959 20.232 49.1559 20.376 49.3159 20.536V20.584C49.4439 20.68 49.6519 20.856 49.9399 21.112C50.2279 21.368 50.4999 21.624 50.7559 21.88C51.0119 22.104 51.1559 22.28 51.1879 22.408C51.2519 22.536 51.3479 22.616 51.4759 22.648C51.6039 22.68 51.7159 22.728 51.8119 22.792C52.0679 22.984 52.3239 23.176 52.5799 23.368C52.8679 23.56 53.1399 23.768 53.3959 23.992C53.4919 24.056 53.5239 24.12 53.4919 24.184C53.4919 24.248 53.5079 24.312 53.5399 24.376C53.6039 24.408 53.7159 24.456 53.8759 24.52C54.0679 24.552 54.2119 24.6 54.3079 24.664C55.0439 25.144 55.7799 25.608 56.5159 26.056C57.2519 26.536 58.0199 26.984 58.8199 27.4C59.6519 27.816 60.4999 28.184 61.3639 28.504C62.2279 28.824 63.1399 28.984 64.0999 28.984C64.8679 28.984 65.6039 28.84 66.3079 28.552C67.0439 28.264 67.4119 27.736 67.4119 26.968C67.4119 26.712 67.3639 26.44 67.2679 26.152C67.2359 25.992 67.1719 25.816 67.0759 25.624C67.0119 25.432 66.8999 25.288 66.7399 25.192C66.6439 25 66.4679 24.872 66.2119 24.808C66.0519 24.648 65.9079 24.488 65.7799 24.328C65.6519 24.136 65.4599 24.056 65.2039 24.088C65.1079 23.992 65.0599 23.896 65.0599 23.8C65.0599 23.672 65.1079 23.576 65.2039 23.512C65.3319 23.416 65.4759 23.4 65.6359 23.464C65.8599 23.592 66.0359 23.768 66.1639 23.992C66.3239 24.184 66.5319 24.296 66.7879 24.328L67.0279 24.568C67.1239 24.728 67.2199 24.856 67.3159 24.952C67.4439 25.048 67.5559 25.176 67.6519 25.336C67.7479 25.464 67.8439 25.64 67.9399 25.864C68.0679 26.12 68.1479 26.328 68.1799 26.488C68.2439 26.616 68.2599 26.744 68.2279 26.872C68.2279 27 68.2759 27.144 68.3719 27.304C68.4359 28.296 68.1159 29.096 67.4119 29.704C66.7079 30.344 65.8919 30.696 64.9639 30.76C64.8679 30.696 64.7719 30.648 64.6759 30.616C64.6119 30.584 64.5479 30.568 64.4839 30.568C64.3879 30.568 64.2599 30.648 64.0999 30.808ZM41.8759 24.088C41.9399 24.12 41.9719 24.12 41.9719 24.088C42.0039 24.024 42.0199 23.992 42.0199 23.992C42.0839 23.896 42.1159 23.8 42.1159 23.704C42.1159 23.576 42.1319 23.464 42.1639 23.368C42.7399 21.928 43.4759 20.36 44.3719 18.664C44.4359 18.536 44.4999 18.504 44.5639 18.568C44.6599 18.6 44.7239 18.584 44.7559 18.52C44.8199 18.456 44.8359 18.376 44.8039 18.28C44.8039 18.184 44.8039 18.104 44.8039 18.04C44.7719 17.976 44.7239 17.928 44.6599 17.896C44.5959 17.864 44.5479 17.816 44.5159 17.752C44.3879 17.4 44.2119 17.176 43.9879 17.08C43.7959 16.952 43.6519 16.76 43.5559 16.504C43.4279 16.216 43.2999 16.008 43.1719 15.88C43.0759 15.72 42.9479 15.528 42.7879 15.304L42.6439 16.936C42.6119 17.256 42.5639 17.624 42.4999 18.04C42.4679 18.456 42.3879 18.84 42.2599 19.192C42.2279 19.288 42.2119 19.432 42.2119 19.624V20.152C42.2119 20.216 42.1959 20.296 42.1639 20.392C42.1639 20.488 42.1639 20.584 42.1639 20.68L42.0679 21.64C42.0359 21.96 41.9879 22.296 41.9239 22.648C41.8599 22.968 41.8279 23.272 41.8279 23.56C41.8279 23.816 41.8439 23.992 41.8759 24.088Z" fill="#55C5D1"/>
</svg>
